<?xml version="1.0" encoding="utf-8"?>
<!-- Generator: Adobe Illustrator 23.0.1, SVG Export Plug-In . SVG Version: 6.00 Build 0)  -->
<svg version="1.1" id="Layer_1" xmlns="http://www.w3.org/2000/svg" xmlns:xlink="http://www.w3.org/1999/xlink" x="0px" y="0px"
	 viewBox="0 0 82 82" style="enable-background:new 0 0 82 82;" xml:space="preserve">
<style type="text/css">
	.st0{fill:#F1F1F1;}
	.st1{fill:none;stroke:#F1F1F1;stroke-miterlimit:10;}
	.st2{fill:none;stroke:#131313;stroke-miterlimit:10;}
	.st3{fill:#131313;stroke:#F1F1F1;stroke-miterlimit:10;}
	.st4{fill:#F2F1F1;stroke:#131313;stroke-miterlimit:10;}
	.st5{fill:#131313;}
	.st6{fill:#F2F1F1;}
	.st7{fill:none;stroke:#80FF9D;stroke-miterlimit:10;}
	.st8{fill:#80FF9D;}
</style>
<circle class="st1" cx="41" cy="41" r="40"/>
<path class="st0" d="M23.23,43.12l26.28-0.06c1.04,0,1.57,1.26,0.83,2L38.32,57.07c-0.46,0.46-0.46,1.2,0,1.65l1.36,1.36
	c0.46,0.46,1.2,0.46,1.65,0l18.27-18.27c0.46-0.46,0.46-1.2,0-1.65L41.37,21.92c-0.46-0.46-1.2-0.46-1.65,0l-1.39,1.39
	c-0.46,0.46-0.46,1.2,0,1.65l11.82,11.82c0.74,0.74,0.22,1.99-0.82,2l-26.1,0.06c-0.64,0-1.16,0.52-1.17,1.17l-0.01,1.94
	C22.05,42.6,22.58,43.12,23.23,43.12z"/>
</svg>
